<?xml version="1.0" encoding="UTF-8" standalone="no"?>
<!DOCTYPE svg PUBLIC "-//W3C//DTD SVG 1.1//EN" "http://www.w3.org/Graphics/SVG/1.1/DTD/svg11.dtd">
<svg version="1.1" xmlns="http://www.w3.org/2000/svg" xmlns:xlink="http://www.w3.org/1999/xlink" preserveAspectRatio="xMidYMid meet" viewBox="0 0 640 165" width="640" height="165"><defs><path d="M600.55 -1508.43C600.55 -1508.43 600.55 -1508.43 600.55 -1508.43C600.55 -1405.04 600.55 -1347.61 600.55 -1336.12C600.55 -1336.12 600.55 -1336.12 600.55 -1336.12C216.55 -1336.12 3.22 -1336.12 -39.45 -1336.12C-39.45 -1336.12 -39.45 -1336.12 -39.45 -1336.12C-39.45 -1439.5 -39.45 -1496.94 -39.45 -1508.43C-39.45 -1508.43 -39.45 -1508.43 -39.45 -1508.43C344.55 -1508.43 557.89 -1508.43 600.55 -1508.43Z" id="c1FEOZg9JJ"></path><path d="M152.43 123.2C152.39 127.95 149.67 132.27 145.39 134.34C139.13 137.37 89.06 161.53 82.8 164.55C79.38 166.2 75.39 166.2 71.97 164.55C69.5 163.36 57.17 157.39 34.98 146.65C19.68 139.16 11.18 135 9.48 134.17C5.18 132.12 2.45 127.78 2.45 123.02C2.45 115.64 2.45 56.56 2.45 49.18C2.48 44.45 5.21 40.16 9.48 38.13C15.74 35.01 65.78 10 72.04 6.87C75.54 5.13 79.65 5.13 83.15 6.87C89.4 10.01 139.36 35.13 145.6 38.27C149.79 40.38 152.42 44.67 152.43 49.35C152.43 64.12 152.43 115.81 152.43 123.2Z" id="fip4Peayb"></path><path d="M637.55 60.19C637.55 60.19 637.55 60.19 637.55 60.19C637.55 99.51 637.55 121.36 637.55 125.73C637.55 125.73 637.55 125.73 637.55 125.73C628.37 125.73 623.28 125.73 622.26 125.73C622.26 125.73 622.26 125.73 622.26 125.73C622.26 86.4 622.26 64.56 622.26 60.19C622.26 60.19 622.26 60.19 622.26 60.19C631.43 60.19 636.53 60.19 637.55 60.19Z" id="e1pJJC41Ou"></path><path d="M441.87 93.52C441.87 82.34 447.67 73.4 461.21 73.4C468.2 73.46 475.09 75.11 481.36 78.22C481.36 76.79 481.36 65.34 481.36 63.91C474.89 61.17 467.95 59.75 460.93 59.73C440.11 59.73 426.85 74.07 426.85 93.52C426.85 112.96 441.31 125.84 462.02 125.84C469.16 125.79 476.22 124.39 482.84 121.69C482.84 120.28 482.84 109.03 482.84 107.62C476.39 110.68 469.39 112.4 462.26 112.68C449.39 112.68 441.87 104.7 441.87 93.52Z" id="g2ASyCZ8SN"></path><path d="M630.53 34.16C625.84 34.16 622.05 37.95 622.05 42.64C622.05 47.32 625.84 51.11 630.53 51.11C635.21 51.11 639 47.32 639 42.64C639 37.95 635.21 34.16 630.53 34.16Z" id="c88geo6SLx"></path><path d="M529.55 59.78L531.01 59.86L532.44 59.98L533.84 60.14L535.22 60.36L536.56 60.62L537.87 60.92L539.15 61.27L540.4 61.66L541.62 62.1L542.8 62.58L543.95 63.1L545.07 63.67L546.15 64.27L547.2 64.92L548.21 65.61L549.19 66.34L550.13 67.1L551.04 67.91L551.9 68.75L552.73 69.63L553.52 70.55L554.28 71.5L554.99 72.49L555.67 73.52L556.3 74.58L556.89 75.67L557.45 76.8L557.96 77.96L558.42 79.15L558.85 80.37L559.23 81.63L559.57 82.92L559.87 84.24L560.12 85.58L560.33 86.96L560.49 88.36L560.6 89.8L560.67 91.26L560.69 92.74L560.69 125.17L545.64 125.17L545.64 114.62L545.36 115.14L545.06 115.66L544.76 116.16L544.43 116.66L544.1 117.14L543.75 117.61L543.39 118.07L543.02 118.52L542.64 118.96L542.25 119.38L541.84 119.8L541.43 120.2L541 120.58L540.56 120.96L540.11 121.32L539.66 121.67L539.19 122.01L538.72 122.33L538.24 122.64L537.74 122.94L537.24 123.22L536.74 123.49L536.22 123.75L535.7 123.99L535.17 124.21L534.63 124.42L534.09 124.62L533.54 124.8L532.99 124.96L532.43 125.11L531.87 125.25L531.3 125.37L530.73 125.47L530.15 125.56L529.57 125.63L528.98 125.68L528.4 125.72L527.8 125.74L527.21 125.74L526.62 125.73L525.22 125.7L523.85 125.63L522.5 125.5L521.17 125.33L519.87 125.11L518.59 124.84L517.33 124.52L516.1 124.16L514.9 123.76L513.73 123.31L512.58 122.81L511.47 122.27L510.38 121.69L509.32 121.07L508.3 120.41L507.3 119.71L506.34 118.97L505.41 118.19L504.52 117.37L503.66 116.52L502.83 115.63L502.04 114.7L501.29 113.74L500.57 112.74L499.89 111.71L499.26 110.65L498.66 109.56L498.1 108.43L497.58 107.27L497.1 106.09L496.66 104.87L496.27 103.63L495.92 102.36L495.62 101.06L495.36 99.74L495.14 98.39L494.97 97.01L494.85 95.61L494.78 94.19L494.76 92.74L494.75 92.69L494.75 92.64L494.75 92.58L494.75 92.53L494.75 92.47L494.75 92.42L494.75 92.36L494.75 92.31L494.75 92.25L494.74 92.2L494.74 92.14L494.74 92.09L494.74 92.04L494.74 91.98L494.74 91.93L494.74 91.87L494.74 91.82L494.74 91.76L494.74 91.71L494.74 91.65L494.74 91.6L494.74 91.54L494.74 91.49L494.74 91.44L494.75 91.38L494.75 91.33L494.75 91.27L494.75 91.22L494.75 91.16L494.75 91.11L494.75 91.05L494.75 91L494.75 90.94L494.76 90.89L494.76 90.83L494.76 90.78L494.76 90.73L494.76 90.67L494.76 90.62L494.77 90.56L494.84 89.24L494.97 87.94L495.16 86.65L495.39 85.38L495.67 84.13L496 82.9L496.37 81.69L496.79 80.5L497.26 79.33L497.77 78.19L498.32 77.07L498.92 75.97L499.55 74.91L500.22 73.87L500.94 72.86L501.68 71.88L502.47 70.93L503.29 70.01L504.14 69.12L505.03 68.27L505.95 67.45L506.9 66.66L507.88 65.92L508.89 65.21L509.93 64.54L510.99 63.91L512.08 63.31L513.19 62.77L514.33 62.26L515.49 61.79L516.66 61.37L517.86 61L519.08 60.67L520.32 60.39L521.57 60.16L522.84 59.98L524.13 59.85L525.42 59.76L526.74 59.74L528.06 59.76L529.55 59.78ZM525.45 73.21L524.19 73.44L522.97 73.76L521.79 74.16L520.65 74.65L519.56 75.21L518.51 75.85L517.51 76.57L516.56 77.36L515.66 78.21L514.82 79.13L514.04 80.11L513.33 81.15L512.68 82.25L512.09 83.4L511.57 84.61L511.13 85.86L510.76 87.16L510.47 88.5L510.26 89.88L510.13 91.29L510.09 92.74L510.13 94.31L510.24 95.82L510.43 97.28L510.7 98.67L511.04 100.01L511.45 101.3L511.93 102.51L512.48 103.67L513.09 104.76L513.77 105.79L514.52 106.75L515.33 107.64L516.2 108.46L517.14 109.21L518.13 109.89L519.18 110.49L520.29 111.02L521.45 111.47L522.67 111.84L523.94 112.13L525.26 112.34L526.64 112.46L527.98 112.51L527.92 112.51L528.06 112.51L527.98 112.51L529.4 112.45L530.82 112.28L532.18 112.01L533.47 111.64L534.7 111.17L535.87 110.62L536.96 109.98L538 109.26L538.97 108.47L539.87 107.61L540.71 106.69L541.48 105.72L542.19 104.69L542.83 103.62L543.41 102.5L543.92 101.35L544.36 100.17L544.74 98.96L545.05 97.74L545.3 96.5L545.48 95.25L545.59 94L545.64 92.74L545.6 91.21L545.49 89.72L545.3 88.28L545.05 86.89L544.72 85.56L544.32 84.29L543.85 83.08L543.32 81.92L542.72 80.83L542.05 79.8L541.32 78.84L540.53 77.95L539.68 77.12L538.77 76.36L537.8 75.68L536.77 75.07L535.68 74.54L534.54 74.08L533.35 73.7L532.1 73.4L530.8 73.19L529.45 73.06L528.06 73.02L526.74 73.07L525.45 73.21Z" id="f4bv9unL2C"></path><path d="M300.27 112.02C292 111.97 287.19 105.08 287.25 95.98C287.26 93.58 287.33 81.62 287.46 60.07L272.38 59.98C272.25 81.74 272.17 93.82 272.16 96.24C272.12 103.34 274.16 109.7 277.79 114.69C282.71 121.43 290.55 125.64 300.11 125.7C300.48 125.7 302.29 125.71 305.56 125.73L305.65 112.05C302.78 112.04 300.98 112.03 300.27 112.02Z" id="h3iAYEgVra"></path><path d="M605.35 73.44C597.09 73.44 592.23 80.3 592.23 89.4C592.23 91.8 592.23 103.77 592.23 125.31L577.15 125.31C577.15 103.55 577.15 91.47 577.15 89.05C577.15 72.35 588.65 59.76 605.28 59.76C605.65 59.76 607.49 59.76 610.8 59.76L610.8 73.44C607.89 73.44 606.08 73.44 605.35 73.44Z" id="mfkzg5do6"></path><path d="M384.87 59.92L386.07 60.09L387.26 60.3L388.43 60.56L389.58 60.87L390.71 61.22L391.83 61.61L392.92 62.04L393.99 62.52L395.03 63.03L396.06 63.58L397.05 64.18L398.03 64.8L398.97 65.47L399.89 66.16L400.78 66.9L401.64 67.66L402.47 68.46L403.27 69.29L404.04 70.14L404.77 71.03L405.47 71.94L406.14 72.88L406.77 73.85L407.36 74.84L407.91 75.86L408.43 76.9L408.91 77.96L409.35 79.04L409.74 80.14L410.09 81.26L410.4 82.39L410.67 83.55L410.89 84.72L411.07 85.9L411.2 87.1L411.28 88.32L411.31 89.54L411.29 90.78L411.29 90.96L411.29 91.14L411.29 91.32L411.29 91.51L411.29 91.69L411.28 91.87L411.28 92.05L411.28 92.24L411.27 92.42L411.27 92.6L411.26 92.78L411.26 92.97L411.25 93.15L411.24 93.33L411.24 93.51L411.23 93.69L411.22 93.88L411.21 94.06L411.2 94.24L411.19 94.42L411.17 94.61L411.16 94.79L411.15 94.97L411.13 95.15L411.12 95.33L411.11 95.51L411.09 95.7L411.07 95.88L411.06 96.06L411.04 96.24L411.02 96.42L411 96.6L410.98 96.79L410.96 96.97L410.94 97.15L410.92 97.33L410.9 97.51L410.88 97.69L410.86 97.87L410.83 98.05L365.12 98.05L365.25 98.81L365.41 99.55L365.58 100.26L365.78 100.96L366.01 101.64L366.25 102.3L366.52 102.93L366.8 103.55L367.11 104.15L367.44 104.74L367.79 105.3L368.16 105.84L368.55 106.36L368.96 106.87L369.39 107.35L369.83 107.82L370.3 108.27L370.79 108.69L371.29 109.1L371.82 109.49L372.36 109.86L372.92 110.21L373.5 110.55L374.09 110.86L374.7 111.15L375.33 111.43L375.98 111.68L376.64 111.92L377.32 112.14L378.01 112.34L378.73 112.52L379.45 112.68L380.19 112.82L380.95 112.94L381.72 113.05L382.51 113.13L383.31 113.2L384.12 113.24L384.95 113.27L385.79 113.28L386.39 113.25L386.98 113.22L387.58 113.18L388.17 113.14L388.76 113.09L389.36 113.04L389.95 112.98L390.54 112.91L391.13 112.85L391.72 112.77L392.31 112.7L392.9 112.61L393.49 112.53L394.07 112.43L394.66 112.33L395.24 112.23L395.83 112.13L396.41 112.01L396.99 111.9L397.57 111.77L398.15 111.65L398.73 111.52L399.31 111.38L399.89 111.24L400.46 111.09L401.04 110.94L401.61 110.78L402.18 110.62L402.75 110.46L403.32 110.29L403.89 110.11L404.45 109.93L405.02 109.75L405.58 109.56L406.15 109.37L406.71 109.17L407.27 108.96L407.82 108.75L408.38 108.54L408.93 108.32L408.93 121.54L408.36 121.75L407.78 121.94L407.2 122.13L406.62 122.32L406.04 122.5L405.46 122.68L404.88 122.85L404.29 123.02L403.71 123.18L403.12 123.34L402.53 123.49L401.94 123.64L401.35 123.78L400.76 123.92L400.17 124.05L399.57 124.18L398.98 124.3L398.38 124.42L397.79 124.53L397.19 124.64L396.59 124.74L395.99 124.84L395.39 124.93L394.79 125.02L394.19 125.1L393.58 125.18L392.98 125.25L392.38 125.32L391.77 125.38L391.17 125.44L390.56 125.49L389.96 125.53L389.35 125.58L388.74 125.61L388.13 125.65L387.53 125.67L386.92 125.69L386.31 125.71L385.7 125.72L385.09 125.73L383.57 125.71L382.08 125.64L380.6 125.52L379.15 125.37L377.72 125.16L376.32 124.92L374.95 124.63L373.6 124.29L372.28 123.92L370.99 123.5L369.73 123.03L368.5 122.53L367.3 121.98L366.14 121.4L365 120.77L363.9 120.1L362.84 119.4L361.81 118.65L360.82 117.86L359.86 117.04L358.94 116.17L358.07 115.27L357.23 114.33L356.43 113.35L355.68 112.33L354.96 111.28L354.29 110.19L353.67 109.07L353.09 107.91L352.55 106.71L352.07 105.48L351.63 104.21L351.23 102.91L350.89 101.58L350.6 100.21L350.36 98.81L350.17 97.38L350.04 95.91L349.95 94.42L349.93 92.89L349.93 92.85L349.93 92.82L349.92 92.79L349.92 92.76L349.92 92.73L349.92 92.7L349.92 92.67L349.92 92.64L349.92 92.61L349.92 92.57L349.92 92.54L349.92 92.51L349.92 92.48L349.92 92.42L349.92 92.39L349.92 92.36L349.92 92.32L349.91 92.29L349.91 92.26L349.91 92.23L349.91 92.2L349.91 92.17L349.91 92.14L349.91 92.11L349.91 92.08L349.91 92.04L349.91 92.01L349.91 91.98L349.91 91.95L349.91 91.89L349.91 91.86L349.91 91.83L349.91 91.8L349.91 91.76L349.91 91.73L349.91 91.7L349.91 91.67L349.91 91.64L349.95 90.31L350.05 89L350.19 87.7L350.38 86.42L350.63 85.15L350.92 83.91L351.26 82.68L351.65 81.47L352.08 80.29L352.56 79.13L353.08 77.99L353.65 76.87L354.25 75.78L354.9 74.72L355.58 73.68L356.3 72.67L357.06 71.7L357.86 70.75L358.69 69.83L359.56 68.95L360.46 68.1L361.39 67.29L362.35 66.51L363.34 65.77L364.36 65.06L365.41 64.4L366.48 63.77L367.58 63.18L368.71 62.64L369.86 62.14L371.03 61.69L372.22 61.27L373.44 60.91L374.67 60.59L375.92 60.32L377.19 60.1L378.48 59.93L379.78 59.81L381.09 59.74L382.42 59.73L383.65 59.8L384.87 59.92ZM377.88 72.71L376.32 73.16L374.82 73.76L373.39 74.5L372.04 75.37L370.78 76.37L369.62 77.48L368.57 78.7L367.63 80.03L366.82 81.45L366.15 82.97L365.63 84.57L365.26 86.24L398.28 86.24L398.01 84.94L397.64 83.67L397.18 82.45L396.62 81.28L395.99 80.16L395.27 79.1L394.47 78.1L393.6 77.16L392.67 76.29L391.67 75.5L390.6 74.78L389.48 74.14L388.31 73.59L387.09 73.13L385.83 72.76L384.53 72.49L382.82 72.29L381.14 72.27L379.49 72.41L377.88 72.71Z" id="c2JHJ1sdHa"></path><path d="M129.15 17.49C110.58 17.49 95.53 32.54 95.53 51.11C95.53 69.68 110.58 84.73 129.15 84.73C147.71 84.73 162.76 69.68 162.76 51.11C162.76 32.54 147.71 17.49 129.15 17.49Z" id="af21RhcfJ"></path><path d="M220.81 59.77L222.27 59.85L223.7 59.97L225.11 60.13L226.48 60.35L227.82 60.61L229.13 60.91L230.42 61.26L231.66 61.65L232.88 62.09L234.07 62.57L235.22 63.09L236.33 63.66L237.42 64.26L238.46 64.91L239.48 65.6L240.45 66.32L241.4 67.09L242.3 67.9L243.17 68.74L244 69.62L244.79 70.54L245.54 71.49L246.26 72.48L246.93 73.5L247.56 74.56L248.16 75.66L248.71 76.79L249.22 77.95L249.69 79.14L250.12 80.36L250.5 81.62L250.84 82.91L251.13 84.23L251.38 85.57L251.59 86.95L251.75 88.35L251.87 89.79L251.93 91.25L251.95 92.73L251.95 125.16L236.9 125.16L236.9 114.61L236.62 115.13L236.33 115.65L236.02 116.15L235.7 116.65L235.37 117.13L235.02 117.6L234.66 118.06L234.29 118.51L233.91 118.95L233.51 119.37L233.11 119.79L232.69 120.19L232.26 120.57L231.83 120.95L231.38 121.31L230.92 121.66L230.46 122L229.98 122.32L229.5 122.63L229.01 122.93L228.51 123.21L228 123.48L227.49 123.74L226.96 123.98L226.43 124.2L225.9 124.41L225.36 124.61L224.81 124.79L224.26 124.95L223.7 125.1L223.13 125.24L222.56 125.36L221.99 125.46L221.41 125.55L220.83 125.62L220.25 125.67L219.66 125.71L219.07 125.73L218.48 125.73L217.88 125.72L216.48 125.69L215.11 125.62L213.76 125.49L212.43 125.32L211.13 125.1L209.85 124.83L208.6 124.51L207.37 124.15L206.17 123.75L204.99 123.29L203.85 122.8L202.73 122.26L201.65 121.68L200.59 121.06L199.56 120.4L198.57 119.7L197.61 118.96L196.68 118.18L195.78 117.36L194.92 116.51L194.1 115.61L193.31 114.69L192.55 113.73L191.84 112.73L191.16 111.7L190.52 110.64L189.92 109.54L189.36 108.42L188.84 107.26L188.36 106.08L187.93 104.86L187.53 103.62L187.19 102.35L186.88 101.05L186.62 99.72L186.41 98.37L186.24 97L186.12 95.6L186.04 94.18L186.02 92.73L186.02 92.68L186.02 92.63L186.02 92.57L186.01 92.52L186.01 92.46L186.01 92.41L186.01 92.35L186.01 92.3L186.01 92.24L186.01 92.19L186.01 92.13L186.01 92.08L186.01 92.02L186.01 91.97L186.01 91.92L186.01 91.86L186.01 91.81L186.01 91.75L186.01 91.7L186.01 91.64L186.01 91.59L186.01 91.53L186.01 91.48L186.01 91.42L186.01 91.37L186.01 91.32L186.01 91.26L186.01 91.21L186.01 91.15L186.01 91.1L186.02 91.04L186.02 90.99L186.02 90.93L186.02 90.88L186.02 90.82L186.02 90.77L186.02 90.72L186.03 90.66L186.03 90.61L186.03 90.55L186.11 89.23L186.24 87.93L186.42 86.64L186.65 85.37L186.93 84.12L187.26 82.89L187.64 81.68L188.06 80.49L188.52 79.32L189.03 78.18L189.59 77.06L190.18 75.96L190.81 74.9L191.49 73.86L192.2 72.85L192.95 71.87L193.73 70.91L194.55 70L195.41 69.11L196.3 68.26L197.22 67.44L198.17 66.65L199.15 65.91L200.16 65.2L201.19 64.53L202.25 63.9L203.34 63.3L204.46 62.75L205.59 62.25L206.75 61.78L207.93 61.36L209.13 60.99L210.35 60.66L211.58 60.38L212.84 60.15L214.11 59.97L215.39 59.83L216.69 59.75L218 59.73L219.32 59.75L220.81 59.77ZM216.71 73.2L215.46 73.43L214.24 73.75L213.06 74.15L211.92 74.64L210.82 75.2L209.77 75.84L208.77 76.56L207.82 77.34L206.93 78.2L206.09 79.12L205.31 80.1L204.59 81.14L203.94 82.24L203.35 83.39L202.84 84.6L202.4 85.85L202.03 87.15L201.74 88.49L201.52 89.87L201.4 91.28L201.35 92.73L201.39 94.3L201.51 95.81L201.7 97.27L201.96 98.66L202.3 100L202.71 101.28L203.19 102.5L203.74 103.66L204.36 104.75L205.04 105.78L205.79 106.74L206.6 107.63L207.47 108.45L208.4 109.2L209.4 109.88L210.45 110.48L211.55 111.01L212.72 111.46L213.94 111.83L215.21 112.12L216.53 112.33L217.9 112.45L219.24 112.5L219.18 112.5L219.32 112.5L219.24 112.5L220.67 112.44L222.09 112.27L223.45 112L224.74 111.63L225.97 111.16L227.13 110.61L228.23 109.97L229.26 109.25L230.23 108.46L231.13 107.6L231.97 106.68L232.75 105.71L233.45 104.68L234.1 103.6L234.67 102.49L235.18 101.34L235.63 100.16L236 98.95L236.32 97.73L236.56 96.49L236.74 95.24L236.86 93.98L236.9 92.73L236.87 91.19L236.75 89.71L236.57 88.27L236.31 86.88L235.98 85.55L235.58 84.28L235.12 83.07L234.58 81.91L233.98 80.82L233.32 79.79L232.59 78.83L231.8 77.93L230.94 77.11L230.03 76.35L229.06 75.67L228.03 75.06L226.95 74.52L225.81 74.07L224.61 73.69L223.37 73.39L222.07 73.18L220.72 73.05L219.32 73.01L218 73.05L216.71 73.2Z" id="fjccywmRO"></path><path d="M330.14 100.45C330.14 114.4 317.6 125.73 302.15 125.73C286.7 125.73 274.16 114.4 274.16 100.45C274.16 86.49 286.7 75.16 302.15 75.16C317.6 75.16 330.14 86.49 330.14 100.45Z" id="b1s09WcyUV"></path><path d="M317.55 100.02C317.55 107.95 310.91 114.39 302.73 114.39C294.54 114.39 287.9 107.95 287.9 100.02C287.9 92.09 294.54 85.65 302.73 85.65C310.91 85.65 317.55 92.09 317.55 100.02Z" id="cTtqZ3Qhz"></path><path d="M44.85 72.27L45.87 72.38L46.88 72.54L47.9 72.75L48.91 73.01L49.92 73.32L51.05 73.67L52.15 74.06L53.21 74.49L54.24 74.95L55.23 75.45L56.18 75.98L57.09 76.55L57.96 77.15L58.8 77.78L59.6 78.45L60.36 79.14L61.08 79.87L61.76 80.62L62.4 81.41L63 82.22L63.56 83.06L64.08 83.93L64.56 84.83L65 85.75L65.4 86.69L65.75 87.67L66.07 88.66L66.34 89.68L66.57 90.72L66.75 91.78L66.9 92.86L67 93.96L67.05 95.09L67.07 96.23L67.04 97.39L66.96 98.56L66.84 99.76L66.67 100.97L66.46 102.2L66.21 103.44L65.9 104.69L65.56 105.96L58.18 131.46L47.5 128.37L49.9 120.07L49.56 120.46L49.21 120.83L48.84 121.19L48.47 121.53L48.1 121.87L47.71 122.18L47.32 122.49L46.92 122.78L46.52 123.06L46.11 123.32L45.69 123.57L45.27 123.81L44.84 124.03L44.41 124.24L43.97 124.43L43.53 124.61L43.08 124.78L42.64 124.93L42.18 125.07L41.73 125.19L41.27 125.29L40.82 125.39L40.35 125.46L39.89 125.52L39.43 125.57L38.96 125.6L38.5 125.62L38.03 125.62L37.57 125.6L37.1 125.57L36.64 125.53L36.17 125.46L35.71 125.38L35.25 125.29L34.79 125.18L34.34 125.05L33.88 124.91L32.82 124.58L31.79 124.2L30.79 123.79L29.83 123.34L28.89 122.85L27.99 122.32L27.12 121.76L26.29 121.16L25.49 120.52L24.73 119.85L24 119.15L23.31 118.42L22.65 117.66L22.03 116.87L21.44 116.04L20.9 115.19L20.39 114.32L19.92 113.41L19.49 112.48L19.09 111.53L18.74 110.55L18.43 109.55L18.15 108.53L17.92 107.49L17.73 106.42L17.58 105.34L17.47 104.24L17.41 103.12L17.39 101.99L17.41 100.84L17.47 99.67L17.58 98.5L17.73 97.3L17.93 96.1L18.17 94.89L18.46 93.66L18.8 92.43L18.81 92.38L18.82 92.34L18.83 92.29L18.85 92.24L18.86 92.2L18.87 92.15L18.88 92.1L18.9 92.06L18.91 92.01L18.92 91.96L18.93 91.92L18.95 91.87L18.96 91.82L18.97 91.78L18.99 91.73L19 91.68L19.01 91.64L19.03 91.59L19.04 91.54L19.06 91.5L19.07 91.45L19.08 91.41L19.1 91.36L19.11 91.31L19.12 91.27L19.14 91.22L19.15 91.18L19.17 91.13L19.18 91.08L19.2 91.04L19.21 90.99L19.23 90.94L19.24 90.9L19.26 90.85L19.27 90.81L19.28 90.76L19.3 90.71L19.69 89.61L20.11 88.53L20.57 87.48L21.07 86.46L21.61 85.47L22.18 84.51L22.78 83.58L23.41 82.68L24.08 81.81L24.77 80.97L25.49 80.17L26.24 79.4L27.01 78.67L27.8 77.97L28.62 77.31L29.47 76.68L30.33 76.1L31.21 75.55L32.11 75.04L33.02 74.57L33.95 74.14L34.9 73.75L35.85 73.4L36.82 73.09L37.8 72.83L38.79 72.61L39.79 72.44L40.79 72.31L41.8 72.23L42.81 72.2L43.83 72.21L44.85 72.27ZM40.93 83.59L39.78 83.91L38.66 84.35L37.57 84.9L36.52 85.56L35.52 86.31L34.56 87.16L33.66 88.11L32.82 89.15L32.04 90.27L31.33 91.48L30.7 92.77L30.14 94.14L29.67 95.58L29.26 97.15L28.96 98.69L28.77 100.17L28.68 101.61L28.7 102.99L28.83 104.32L29.05 105.59L29.38 106.8L29.81 107.94L30.33 109.01L30.95 110.01L31.67 110.94L32.48 111.8L33.39 112.57L34.38 113.26L35.47 113.86L36.65 114.38L37.86 114.79L39.18 115.09L40.5 115.25L41.79 115.25L43.04 115.1L44.25 114.82L45.41 114.42L46.52 113.9L47.59 113.27L48.6 112.53L49.56 111.71L50.45 110.8L51.29 109.82L52.07 108.78L52.77 107.67L53.41 106.52L53.98 105.33L54.47 104.11L54.88 102.87L55.28 101.32L55.58 99.81L55.78 98.34L55.87 96.91L55.86 95.54L55.74 94.22L55.53 92.96L55.22 91.75L54.82 90.61L54.31 89.54L53.71 88.54L53.01 87.6L52.22 86.75L51.34 85.98L50.37 85.29L49.3 84.68L48.15 84.17L46.9 83.75L45.69 83.46L44.48 83.31L43.28 83.28L42.1 83.37L40.93 83.59ZM37.86 114.79L37.82 114.78L37.92 114.81L37.86 114.79Z" id="bLYGvKbnY"></path></defs><g><g><g><use xlink:href="#c1FEOZg9JJ" opacity="1" fill="#000000" fill-opacity="0"></use><g><use xlink:href="#c1FEOZg9JJ" opacity="1" fill-opacity="0" stroke="#000000" stroke-width="1" stroke-opacity="0"></use></g></g><g><use xlink:href="#fip4Peayb" opacity="1" fill="#ff0211" fill-opacity="1"></use><g><use xlink:href="#fip4Peayb" opacity="1" fill-opacity="0" stroke="#000000" stroke-width="1" stroke-opacity="0"></use></g></g><g><use xlink:href="#e1pJJC41Ou" opacity="1" fill="#222222" fill-opacity="1"></use><g><use xlink:href="#e1pJJC41Ou" opacity="1" fill-opacity="0" stroke="#000000" stroke-width="1" stroke-opacity="0"></use></g></g><g><use xlink:href="#g2ASyCZ8SN" opacity="1" fill="#222222" fill-opacity="1"></use><g><use xlink:href="#g2ASyCZ8SN" opacity="1" fill-opacity="0" stroke="#000000" stroke-width="1" stroke-opacity="0"></use></g></g><g><use xlink:href="#c88geo6SLx" opacity="1" fill="#222222" fill-opacity="1"></use><g><use xlink:href="#c88geo6SLx" opacity="1" fill-opacity="0" stroke="#000000" stroke-width="1" stroke-opacity="0"></use></g></g><g><use xlink:href="#f4bv9unL2C" opacity="1" fill="#222222" fill-opacity="1"></use><g><use xlink:href="#f4bv9unL2C" opacity="1" fill-opacity="0" stroke="#000000" stroke-width="1" stroke-opacity="0"></use></g></g><g><use xlink:href="#h3iAYEgVra" opacity="1" fill="#222222" fill-opacity="1"></use><g><use xlink:href="#h3iAYEgVra" opacity="1" fill-opacity="0" stroke="#000000" stroke-width="1" stroke-opacity="0"></use></g></g><g><use xlink:href="#mfkzg5do6" opacity="1" fill="#222222" fill-opacity="1"></use><g><use xlink:href="#mfkzg5do6" opacity="1" fill-opacity="0" stroke="#000000" stroke-width="1" stroke-opacity="0"></use></g></g><g><use xlink:href="#c2JHJ1sdHa" opacity="1" fill="#222222" fill-opacity="1"></use><g><use xlink:href="#c2JHJ1sdHa" opacity="1" fill-opacity="0" stroke="#000000" stroke-width="1" stroke-opacity="0"></use></g></g><g><use xlink:href="#af21RhcfJ" opacity="1" fill="#4dc9ff" fill-opacity="1"></use><g><use xlink:href="#af21RhcfJ" opacity="1" fill-opacity="0" stroke="#000000" stroke-width="1" stroke-opacity="0"></use></g></g><g><use xlink:href="#fjccywmRO" opacity="1" fill="#222222" fill-opacity="1"></use><g><use xlink:href="#fjccywmRO" opacity="1" fill-opacity="0" stroke="#000000" stroke-width="1" stroke-opacity="0"></use></g></g><g><use xlink:href="#b1s09WcyUV" opacity="1" fill="#222222" fill-opacity="1"></use><g><use xlink:href="#b1s09WcyUV" opacity="1" fill-opacity="0" stroke="#000000" stroke-width="1" stroke-opacity="1"></use></g></g><g><use xlink:href="#cTtqZ3Qhz" opacity="1" fill="#ffffff" fill-opacity="1"></use></g><g><use xlink:href="#bLYGvKbnY" opacity="1" fill="#ffffff" fill-opacity="1"></use><g><use xlink:href="#bLYGvKbnY" opacity="1" fill-opacity="0" stroke="#000000" stroke-width="1" stroke-opacity="0"></use></g></g></g></g></svg>
